<svg width="5168" height="11615" viewBox="0 0 5168 11615" fill="none" xmlns="http://www.w3.org/2000/svg">
<g filter="url(#filter0_f_54341_35346)">
<rect x="485" y="487" width="4623.86" height="11123.9" fill="#FFFBFB" fill-opacity="0.12"/>
</g>
<g filter="url(#filter1_f_54341_35346)">
<path d="M1946.62 7503.1C1333.5 7868.08 1793.48 6299.39 1035.52 5026.11C1511.03 4605.84 434.547 3474.96 1047.67 3109.98C1660.8 2745 1950.36 2850.83 2708.33 4124.11C3466.3 5397.4 2559.75 7138.12 1946.62 7503.1Z" fill="url(#paint0_radial_54341_35346)" fill-opacity="0.43"/>
</g>
<g filter="url(#filter2_f_54341_35346)">
<path d="M3624.01 9010.58C3624.01 10465.9 4296.8 9296.94 3050.15 9296.94C1803.5 9296.94 1570.73 8527.18 1570.73 7071.81C1570.73 5616.44 2138.76 5534.41 3385.41 5534.41C3121.13 7468.6 3624.01 7555.2 3624.01 9010.58Z" fill="url(#paint1_radial_54341_35346)" fill-opacity="0.43"/>
</g>
<g filter="url(#filter3_f_54341_35346)">
<path d="M4487.79 2355.12C4487.79 3092.43 2538.99 3405.21 1541.06 3405.21C543.135 3405.21 2083.92 2673.09 2083.92 1935.78C2083.92 1198.48 2892.9 600.771 3890.83 600.771C4888.76 600.771 4487.79 1617.81 4487.79 2355.12Z" fill="url(#paint2_radial_54341_35346)" fill-opacity="0.4"/>
</g>
<g filter="url(#filter4_f_54341_35346)">
<path d="M676.185 5373.36C676.185 5468.07 593.806 5544.86 492.185 5544.86C476.685 5565.86 492.185 5468.07 492.185 5373.36C492.185 5278.64 492.186 5335.36 492.185 5198.36C593.806 5198.36 676.185 5278.64 676.185 5373.36Z" fill="url(#paint3_linear_54341_35346)" fill-opacity="0.33"/>
</g>
<g filter="url(#filter5_f_54341_35346)">
<path d="M500.201 8268.82L1340.26 9140.01L2209.33 10353.9L3562.12 11071.1H500.201V8268.82Z" fill="#20D510" fill-opacity="0.25"/>
</g>
<defs>
<filter id="filter0_f_54341_35346" x="481" y="483" width="4631.86" height="11131.9" filterUnits="userSpaceOnUse" color-interpolation-filters="sRGB">
<feFlood flood-opacity="0" result="BackgroundImageFix"/>
<feBlend mode="normal" in="SourceGraphic" in2="BackgroundImageFix" result="shape"/>
<feGaussianBlur stdDeviation="2" result="effect1_foregroundBlur_54341_35346"/>
</filter>
<filter id="filter1_f_54341_35346" x="253.273" y="2326.99" width="3343.52" height="5829.82" filterUnits="userSpaceOnUse" color-interpolation-filters="sRGB">
<feFlood flood-opacity="0" result="BackgroundImageFix"/>
<feBlend mode="normal" in="SourceGraphic" in2="BackgroundImageFix" result="shape"/>
<feGaussianBlur stdDeviation="300" result="effect1_foregroundBlur_54341_35346"/>
</filter>
<filter id="filter2_f_54341_35346" x="970.735" y="4934.41" width="3434.55" height="5406.61" filterUnits="userSpaceOnUse" color-interpolation-filters="sRGB">
<feFlood flood-opacity="0" result="BackgroundImageFix"/>
<feBlend mode="normal" in="SourceGraphic" in2="BackgroundImageFix" result="shape"/>
<feGaussianBlur stdDeviation="300" result="effect1_foregroundBlur_54341_35346"/>
</filter>
<filter id="filter3_f_54341_35346" x="604.751" y="0.770508" width="4562.64" height="4004.44" filterUnits="userSpaceOnUse" color-interpolation-filters="sRGB">
<feFlood flood-opacity="0" result="BackgroundImageFix"/>
<feBlend mode="normal" in="SourceGraphic" in2="BackgroundImageFix" result="shape"/>
<feGaussianBlur stdDeviation="300" result="effect1_foregroundBlur_54341_35346"/>
</filter>
<filter id="filter4_f_54341_35346" x="445.296" y="5158.36" width="270.889" height="429.375" filterUnits="userSpaceOnUse" color-interpolation-filters="sRGB">
<feFlood flood-opacity="0" result="BackgroundImageFix"/>
<feBlend mode="normal" in="SourceGraphic" in2="BackgroundImageFix" result="shape"/>
<feGaussianBlur stdDeviation="20" result="effect1_foregroundBlur_54341_35346"/>
</filter>
<filter id="filter5_f_54341_35346" x="0.201111" y="7768.82" width="4061.92" height="3802.26" filterUnits="userSpaceOnUse" color-interpolation-filters="sRGB">
<feFlood flood-opacity="0" result="BackgroundImageFix"/>
<feBlend mode="normal" in="SourceGraphic" in2="BackgroundImageFix" result="shape"/>
<feGaussianBlur stdDeviation="250" result="effect1_foregroundBlur_54341_35346"/>
</filter>
<radialGradient id="paint0_radial_54341_35346" cx="0" cy="0" r="1" gradientUnits="userSpaceOnUse" gradientTransform="translate(1505.02 4741.99) rotate(165.968) scale(1574.19 2838.89)">
<stop stop-color="#5ED0F4"/>
<stop offset="1" stop-color="white" stop-opacity="0.71"/>
</radialGradient>
<radialGradient id="paint1_radial_54341_35346" cx="0" cy="0" r="1" gradientUnits="userSpaceOnUse" gradientTransform="translate(3747.05 8107.5) rotate(97.0688) scale(3098.4 2475)">
<stop stop-color="#F9BFFF"/>
<stop offset="1" stop-color="white"/>
</radialGradient>
<radialGradient id="paint2_radial_54341_35346" cx="0" cy="0" r="1" gradientUnits="userSpaceOnUse" gradientTransform="translate(3799.7 2255.43) rotate(101.086) scale(1587.37 1959.13)">
<stop stop-color="#97FFC1" stop-opacity="0.71"/>
<stop offset="0.0001" stop-color="#98FFC1" stop-opacity="0.99"/>
<stop offset="1" stop-color="#EAEAEA"/>
</radialGradient>
<linearGradient id="paint3_linear_54341_35346" x1="580.741" y1="5198.36" x2="580.741" y2="5547.73" gradientUnits="userSpaceOnUse">
<stop stop-color="#FF4444" stop-opacity="0.99"/>
<stop offset="1" stop-color="#FF00E6"/>
</linearGradient>
</defs>
</svg>
