<svg width="118" height="48" viewBox="0 0 118 48" fill="none" xmlns="http://www.w3.org/2000/svg">
<g filter="url(#filter0_d_54364_35492)">
<path d="M20.0835 31.424C19.3995 30.74 19.0575 29.924 19.0575 28.976V24.818C19.0575 23.762 18.6855 22.85 17.9415 22.082C17.2095 21.302 16.3155 20.912 15.2595 20.912C14.2035 20.912 13.3035 21.302 12.5595 22.082C11.8155 22.85 11.4435 23.762 11.4435 24.818V28.976C11.4435 29.924 11.1015 30.74 10.4175 31.424C9.73353 32.108 8.76753 32.45 7.51953 32.45V13.568C8.76753 13.568 9.73353 13.91 10.4175 14.594C11.1015 15.278 11.4435 16.094 11.4435 17.042V18.014C12.4155 17.438 13.6875 17.15 15.2595 17.15C17.3835 17.15 19.2015 17.9 20.7135 19.4C22.2255 20.9 22.9815 22.706 22.9815 24.818V32.45C21.7335 32.45 20.7675 32.108 20.0835 31.424ZM27.7191 26.672C26.8071 26.672 26.0211 26.348 25.3611 25.7C24.7131 25.052 24.3891 24.128 24.3891 22.928H33.4971C34.4091 22.928 35.1891 23.252 35.8371 23.9C36.4971 24.548 36.8271 25.472 36.8271 26.672H27.7191ZM50.8519 35.024C50.1679 34.34 49.8259 33.524 49.8259 32.576V32.45H46.0279C43.9039 32.45 42.0799 31.706 40.5559 30.218C39.0439 28.73 38.2879 26.93 38.2879 24.818C38.2879 22.706 39.0439 20.9 40.5559 19.4C42.0799 17.9 43.9039 17.15 46.0279 17.15C48.1519 17.15 49.9699 17.9 51.4819 19.4C53.0059 20.9 53.7679 22.706 53.7679 24.818V36.05C52.5199 36.05 51.5479 35.708 50.8519 35.024ZM49.8259 24.818C49.8259 23.75 49.4599 22.832 48.7279 22.064C47.9959 21.296 47.0959 20.912 46.0279 20.912C44.9599 20.912 44.0599 21.296 43.3279 22.064C42.5959 22.832 42.2299 23.75 42.2299 24.818C42.2299 25.874 42.5959 26.786 43.3279 27.554C44.0719 28.31 44.9719 28.688 46.0279 28.688H49.8259V24.818ZM62.8974 32.45C60.7734 32.45 58.9494 31.706 57.4254 30.218C55.9134 28.718 55.1574 26.906 55.1574 24.782V17.15C56.4054 17.15 57.3714 17.492 58.0554 18.176C58.7394 18.86 59.0814 19.676 59.0814 20.624V24.782C59.0814 25.838 59.4534 26.756 60.1974 27.536C60.9414 28.304 61.8414 28.688 62.8974 28.688C63.9534 28.688 64.8474 28.304 65.5794 27.536C66.3234 26.756 66.6954 25.838 66.6954 24.782V20.624C66.6954 19.676 67.0374 18.86 67.7214 18.176C68.4054 17.492 69.3714 17.15 70.6194 17.15V24.782C70.6194 26.894 69.8634 28.7 68.3514 30.2C66.8394 31.7 65.0214 32.45 62.8974 32.45ZM73.1233 31.424C72.4393 30.74 72.0973 29.924 72.0973 28.976V17.15C73.3453 17.15 74.3113 17.492 74.9953 18.176C75.6793 18.86 76.0213 19.676 76.0213 20.624V32.45C74.7733 32.45 73.8073 32.108 73.1233 31.424ZM90.7136 32.45C89.0216 32.45 87.5696 31.862 86.3576 30.686C85.1456 29.498 84.5396 28.058 84.5396 26.366V23.864C84.5396 23.048 84.2576 22.352 83.6936 21.776C83.1416 21.2 82.4576 20.912 81.6416 20.912H81.0116C80.0876 20.912 79.3016 20.588 78.6536 19.94C78.0056 19.292 77.6816 18.362 77.6816 17.15H82.2716C83.9636 17.15 85.4096 17.744 86.6096 18.932C87.8216 20.108 88.4276 21.542 88.4276 23.234V25.736C88.4276 26.54 88.7096 27.236 89.2736 27.824C89.8376 28.4 90.5216 28.688 91.3256 28.688H91.9916C92.9036 28.688 93.6836 29.012 94.3316 29.66C94.9796 30.308 95.3036 31.238 95.3036 32.45H90.7136ZM107.353 25.7C106.705 26.348 105.925 26.672 105.013 26.672H102.619C102.091 26.672 101.647 26.498 101.287 26.15C100.927 25.79 100.747 25.346 100.747 24.818C100.747 24.29 100.927 23.846 101.287 23.486C101.647 23.114 102.091 22.928 102.619 22.928H108.343C108.343 24.128 108.013 25.052 107.353 25.7ZM103.627 32.45C101.503 32.45 99.6847 31.706 98.1727 30.218C96.6607 28.73 95.9047 26.93 95.9047 24.818C95.9047 22.706 96.6607 20.9 98.1727 19.4C99.6847 17.9 101.503 17.15 103.627 17.15H108.343C108.343 18.362 108.013 19.292 107.353 19.94C106.705 20.588 105.925 20.912 105.013 20.912H103.627C102.571 20.912 101.671 21.302 100.927 22.082C100.195 22.85 99.8287 23.762 99.8287 24.818C99.8287 25.874 100.195 26.786 100.927 27.554C101.671 28.31 102.571 28.688 103.627 28.688H105.013C105.925 28.688 106.705 29.012 107.353 29.66C108.013 30.308 108.343 31.238 108.343 32.45H103.627Z" fill="url(#paint0_linear_54364_35492)"/>
</g>
<defs>
<filter id="filter0_d_54364_35492" x="3.51953" y="13.5684" width="108.823" height="30.4814" filterUnits="userSpaceOnUse" color-interpolation-filters="sRGB">
<feFlood flood-opacity="0" result="BackgroundImageFix"/>
<feColorMatrix in="SourceAlpha" type="matrix" values="0 0 0 0 0 0 0 0 0 0 0 0 0 0 0 0 0 0 127 0" result="hardAlpha"/>
<feOffset dy="4"/>
<feGaussianBlur stdDeviation="2"/>
<feComposite in2="hardAlpha" operator="out"/>
<feColorMatrix type="matrix" values="0 0 0 0 0 0 0 0 0 0 0 0 0 0 0 0 0 0 0.25 0"/>
<feBlend mode="normal" in2="BackgroundImageFix" result="effect1_dropShadow_54364_35492"/>
<feBlend mode="normal" in="SourceGraphic" in2="effect1_dropShadow_54364_35492" result="shape"/>
</filter>
<linearGradient id="paint0_linear_54364_35492" x1="59" y1="15" x2="59" y2="33" gradientUnits="userSpaceOnUse">
<stop stop-color="#0FBEFF"/>
<stop offset="1" stop-color="#1200FF"/>
</linearGradient>
</defs>
</svg>
